# xmcd
#
# Track frame offsets:
#	150
#	14839
#	31182
#	46933
#	53382
#	66165
#	83411
#	101521
#	121087
#	132123
#	153556
#	167668
#	184372
#	201851
#
# Disc length: 2878 seconds
#
# Revision: 0
# Processed by: cddbd v1.4PL0 Copyright (c) Steve Scherf et al.
# Submitted via: dBpowerAMP V4.0
#
DISCID=af0b3c0e
DTITLE=Toby Keith - Greatest Hits Vol. 1
DYEAR=1995
DGENRE=Country
TTITLE0=Getcha Some
TTITLE1=If A Man Answer
TTITLE2=Should've Been A Cowboy
TTITLE3=Dream Walkin'
TTITLE4=A Little Less Talk And A Lot More Action
TTITLE5=Does That Blue Moon Ever Shine On Me
TTITLE6=I'm So Happy I Can't Stop Crying
TTITLE7=We Were In Love
TTITLE8=You Ain't Much Fun
TTITLE9=Who's That Man
TTITLE10=Wish I Didn't Know Now
TTITLE11=Big Ol' Truck
TTITLE12=Me Too
TTITLE13=He Ain't Worth Missing
EXTD=
EXTT0=
EXTT1=
EXTT2=
EXTT3=
EXTT4=
EXTT5=
EXTT6=
EXTT7=
EXTT8=
EXTT9=
EXTT10=
EXTT11=
EXTT12=
EXTT13=
PLAYORDER=
